<?xml version="1.0" encoding="UTF-8" standalone="no"?>
<!-- Created with Inkscape (http://www.inkscape.org/) -->

<svg
   xmlns:dc="http://purl.org/dc/elements/1.1/"
   xmlns:cc="http://creativecommons.org/ns#"
   xmlns:rdf="http://www.w3.org/1999/02/22-rdf-syntax-ns#"
   xmlns:svg="http://www.w3.org/2000/svg"
   xmlns="http://www.w3.org/2000/svg"
   xmlns:sodipodi="http://sodipodi.sourceforge.net/DTD/sodipodi-0.dtd"
   xmlns:inkscape="http://www.inkscape.org/namespaces/inkscape"
   width="500"
   height="479.99997"
   viewBox="0 0 500.00001 479.99997"
   id="svg3712"
   version="1.1"
   inkscape:version="0.91 r13725"
   sodipodi:docname="SVG Logo.svg">
  <defs
     id="defs3714" />
  <sodipodi:namedview
     id="base"
     pagecolor="#ffffff"
     bordercolor="#666666"
     borderopacity="1.0"
     inkscape:pageopacity="0.0"
     inkscape:pageshadow="2"
     inkscape:zoom="1.979899"
     inkscape:cx="-11.282586"
     inkscape:cy="188.45989"
     inkscape:document-units="px"
     inkscape:current-layer="layer1"
     showgrid="false"
     fit-margin-top="0"
     fit-margin-left="0"
     fit-margin-right="0"
     fit-margin-bottom="0"
     units="px"
     inkscape:window-width="4800"
     inkscape:window-height="2590"
     inkscape:window-x="0"
     inkscape:window-y="54"
     inkscape:window-maximized="1" />
  <metadata
     id="metadata3717">
    <rdf:RDF>
      <cc:Work
         rdf:about="">
        <dc:format>image/svg+xml</dc:format>
        <dc:type
           rdf:resource="http://purl.org/dc/dcmitype/StillImage" />
        <dc:title></dc:title>
      </cc:Work>
    </rdf:RDF>
  </metadata>
  <g
     inkscape:label="Layer 1"
     inkscape:groupmode="layer"
     id="layer1"
     transform="translate(-132.85714,-252.36221)">
    <path
       d="M 335.61959,490.1245 C 335.61959,508.429 350.49578,523.27196 368.84067,523.27196 387.18296,523.27196 402.05396,508.429 402.05396,490.1245 402.05396,471.81999 387.18296,456.97186 368.84067,456.97186 350.49578,456.97186 335.61959,471.81999 335.61959,490.1245"
       style="fill:#2e2a2b;fill-opacity:1;fill-rule:nonzero;stroke:none"
       id="path234"
       inkscape:connector-curvature="0" />
    <path
       d="M 602.56241,564.46822 602.25368,564.47858 C 601.05248,564.50965 599.82015,564.54331 598.57225,564.58991 594.71181,564.74007 588.56572,564.77632 581.52456,564.80739 L 580.98752,564.81256 C 574.26288,564.84622 567.30994,564.88247 561.93956,565.05076 553.64532,565.33297 546.70794,573.03536 545.4341,580.05424 542.89679,594.26288 543.81261,607.34011 544.71027,620.15844 L 544.73621,620.53126 C 545.37443,629.67834 545.97632,638.32055 545.27325,647.18542 543.01095,675.78653 509.83916,704.65431 478.30444,705.8142 468.66111,706.17149 457.9515,706.34495 445.56851,706.34495 442.46303,706.34495 439.37831,706.37085 436.28062,706.38897 L 419.78294,639.57624 C 425.76818,637.52831 431.67818,635.15674 437.46885,632.37612 516.06828,594.60205 549.22968,500.06071 511.3906,421.62579 510.50332,419.7798 509.57454,417.96489 508.6224,416.17068 L 552.79436,385.98249 C 560.69685,400.99892 566.61724,417.1105 570.4232,434.32243 572.10955,441.93939 585.10222,488.15113 598.26093,534.83668 L 599.55552,539.42187 C 603.03978,551.78193 606.04927,562.45655 606.29833,563.45591 606.37097,563.76659 606.43064,564.05916 606.48512,564.33101 605.19312,564.4035 603.77918,564.43716 602.56241,564.46822 M 631.70253,557.75226 C 631.47163,556.75547 630.44944,553.11529 623.3097,527.80226 L 622.06439,523.3776 C 612.25503,488.56279 597.43332,435.95612 595.83518,428.72493 583.29134,372.00427 549.52544,323.91029 498.18,289.63142 497.80901,289.38287 497.35499,289.29225 496.91135,289.3777 496.4729,289.46313 496.08893,289.72203 495.83728,290.08968 L 483.25192,308.88093 C 482.73305,309.65505 482.94319,310.70102 483.71632,311.21882 506.30561,326.30256 524.7854,343.90026 539.12456,363.84362 L 494.61013,394.26483 C 465.5712,356.11534 420.5872,332.98228 371.16679,332.22369 370.79061,332.24959 370.2873,332.38939 369.96559,332.69749 369.64648,333.01335 369.45709,333.43795 369.4519,333.88068 L 369.11723,356.48558 C 369.10426,357.40986 369.84625,358.1788 370.77504,358.18916 380.38723,358.33673 389.79965,359.50439 398.89296,361.6041 L 386.126,398.80083 C 380.45987,397.73414 374.6744,397.1775 368.83444,397.1775 347.25177,397.1775 327.3762,404.55884 311.56603,416.90338 L 283.13418,389.65375 C 291.65673,382.42515 301.1418,376.22182 311.48041,371.25604 312.3158,370.85733 312.67124,369.85019 312.26392,369.01134 L 302.44418,348.6382 C 302.25219,348.23171 301.90455,347.92362 301.48166,347.77864 301.06137,347.63106 300.59438,347.65695 300.19485,347.84855 221.59801,385.62779 188.44179,480.17171 226.28087,558.60664 243.05875,593.37743 271.9031,620.73839 307.50582,635.65643 307.71337,635.74187 307.93649,635.78847 308.15441,635.78847 308.37234,635.78847 308.59027,635.74704 308.79523,635.66161 309.21033,635.49591 309.53981,635.1671 309.71104,634.75544 L 318.48006,613.91368 C 318.84327,613.0593 318.43595,612.07287 317.57721,611.70783 287.83521,599.2442 263.74117,576.38298 249.73669,547.33656 234.4428,515.64672 232.45291,479.84808 244.12763,446.55564 249.04399,432.5334 256.15779,419.69437 265.08506,408.36732 L 293.48318,435.5833 C 282.31176,450.91558 275.69609,469.75602 275.69609,490.1188 275.69609,541.36883 317.47603,583.06788 368.83444,583.06788 420.19285,583.06788 461.97539,541.36883 461.97539,490.1188 461.97539,479.35876 460.13597,468.7903 456.50902,458.70082 456.36114,458.29175 456.0602,457.95777 455.66585,457.77653 455.27669,457.5953 454.82786,457.56941 454.41536,457.71699 L 433.74591,465.11905 C 432.89495,465.42714 432.4539,466.3566 432.75745,467.2084 435.39593,474.56904 436.73464,482.28178 436.73464,490.1188 436.73464,527.47863 406.27658,557.87395 368.83444,557.87395 331.3949,557.87395 300.93165,527.47863 300.93165,490.1188 300.93165,452.75639 331.3949,422.36367 368.83444,422.36367 385.26726,422.36367 401.13192,428.30033 413.50712,439.08627 414.19204,439.68433 415.21942,439.61184 415.81353,438.93092 L 430.27462,422.4258 C 430.55741,422.10217 430.70269,421.67756 430.67416,421.24261 430.64302,420.81283 430.44326,420.40635 430.11636,420.12414 424.19858,414.9616 417.68927,410.63273 410.77524,407.15306 L 423.55517,369.92527 C 451.23724,382.43033 474.16121,404.34654 487.93479,432.89328 519.54994,498.42185 491.84452,577.41342 426.1755,608.97639 408.81388,617.31568 390.31334,621.70928 371.19533,622.04844 370.26913,622.06398 369.52455,622.83292 369.54271,623.76238 L 369.93705,646.36728 C 369.94484,646.8126 370.12904,647.23721 370.45074,647.55048 370.76466,647.85339 371.18495,648.01909 371.62081,648.01909 L 371.65194,648.01909 C 379.37542,647.88446 387.00031,647.14658 394.52921,645.91161 L 409.47805,706.3812 C 399.10051,706.24916 388.44019,706.12229 377.97705,706.12229 L 373.22154,706.12747 C 255.03183,706.12747 158.88139,610.17511 158.88139,492.23404 158.88139,374.29039 255.03183,278.33803 373.22154,278.33803 L 374.18146,278.33803 C 392.46927,278.40017 405.76548,280.98921 418.86193,284.26952 419.76996,284.49218 420.67281,283.8967 420.87517,282.98536 L 425.76039,260.90862 C 425.85639,260.47366 425.77337,260.01799 425.53468,259.64517 425.29341,259.26459 424.90165,259.03157 424.47618,258.90729 414.08827,255.74608 395.11554,252.37256 374.92086,252.37256 L 373.22154,252.36221 C 240.68229,252.36221 132.85714,359.96524 132.85714,492.23404 132.85714,624.49768 240.70305,732.10848 373.27602,732.10848 L 378.5997,732.09294 C 389.09917,732.09294 399.87105,732.23016 410.29009,732.36221 410.29009,732.36221 434.20771,732.32596 445.67747,732.32596 458.6001,732.32596 469.27598,732.1499 479.26955,731.76931 524.09789,730.12009 567.92481,690.95311 571.22227,649.22818 572.0836,638.30243 571.36496,628.1534 570.6515,618.11569 569.99512,608.69936 569.37247,599.77494 570.21046,590.8583 573.85297,590.81946 577.80422,590.79875 581.74249,590.77803 588.69284,590.74179 595.26182,590.71331 599.6126,590.54502 600.68149,590.50618 601.74259,590.47512 602.94119,590.44405 611.28214,590.23175 621.66486,589.97026 628.29351,581.49375 635.04669,572.86707 632.5457,561.55556 631.70253,557.75226"
       style="fill:#2e2a2b;fill-opacity:1;fill-rule:nonzero;stroke:none"
       id="path238"
       inkscape:connector-curvature="0" />
  </g>
</svg>
